<svg width="48" height="48" viewBox="0 0 48 48" fill="none" xmlns="http://www.w3.org/2000/svg">
<path d="M32 18L14 9L6.89443 12.5528C6.5259 12.737 6.5259 13.263 6.89443 13.4472L24 22L32 18Z" fill="black"/>
<path d="M23 23.5L6 15V32.5279C6 34.043 6.85601 35.428 8.21114 36.1056L23 43.5V23.5Z" fill="black"/>
<path d="M42 15L25 23.5V43.5L39.7889 36.1056C41.144 35.428 42 34.043 42 32.5279V15Z" fill="black"/>
<path d="M41.1056 12.5528L25.7889 4.89443C24.6627 4.33137 23.3373 4.33137 22.2111 4.89443L16 8L34 17L41.1056 13.4472C41.4741 13.263 41.4741 12.737 41.1056 12.5528Z" fill="black"/>
</svg>
