<svg width="72" height="72" viewBox="0 0 72 72" fill="none" xmlns="http://www.w3.org/2000/svg">
<g clip-path="url(#clip0_118_328537)">
<path fill-rule="evenodd" clip-rule="evenodd" d="M36 1.125C55.2626 1.125 70.875 16.7374 70.875 36C70.875 55.2626 55.2626 70.875 36 70.875C16.7374 70.875 1.125 55.2626 1.125 36C1.125 16.7374 16.7374 1.125 36 1.125Z" fill="white" stroke="black" stroke-opacity="0.6" stroke-width="2.25"/>
<path fill-rule="evenodd" clip-rule="evenodd" d="M36 9C50.913 9 63 21.087 63 36C63 50.913 50.913 63 36 63C21.087 63 9 50.913 9 36C9 21.087 21.087 9 36 9ZM36 16.3125C25.1259 16.3125 16.3125 25.1259 16.3125 36C16.3125 46.8741 25.1259 55.6875 36 55.6875C46.8741 55.6875 55.6875 46.8741 55.6875 36C55.6875 25.1259 46.8741 16.3125 36 16.3125Z" fill="#1A8CFF"/>
<mask id="mask0_118_328537" style="mask-type:alpha" maskUnits="userSpaceOnUse" x="0" y="0" width="72" height="72">
<circle cx="36" cy="36" r="36" fill="#D9D9D9"/>
</mask>
<g mask="url(#mask0_118_328537)">
<circle cx="58.5" cy="13.5" r="20.25" fill="white"/>
</g>
<circle cx="58.5" cy="13.5" r="13.5" fill="#6851D6"/>
<path fill-rule="evenodd" clip-rule="evenodd" d="M31.5 30.2757V23.625C31.5 23.0037 32.0037 22.5 32.625 22.5H39.375C39.9963 22.5 40.5 23.0037 40.5 23.625V23.625V36.859C40.5 37.1673 40.3735 37.462 40.1501 37.6744L39.3065 38.4762C38.8562 38.9043 38.8381 39.6164 39.2662 40.0667C39.2793 40.0805 39.2927 40.0939 39.3065 40.107L40.1501 40.9089C40.3735 41.1213 40.5 41.416 40.5 41.7243V48.375C40.5 48.9963 39.9963 49.5 39.375 49.5V49.5H32.625C32.0037 49.5 31.5 48.9963 31.5 48.375V35.141C31.5 34.8327 31.6265 34.538 31.8499 34.3256L32.6935 33.5238C33.1438 33.0957 33.1619 32.3836 32.7338 31.9333C32.7207 31.9195 32.7073 31.906 32.6935 31.893L31.8499 31.0911C31.6265 30.8787 31.5 30.584 31.5 30.2757V30.2757Z" fill="#333333"/>
</g>
<defs>
<clipPath id="clip0_118_328537">
<rect width="72" height="72" fill="white"/>
</clipPath>
</defs>
</svg>
