<svg width="32" height="32" viewBox="0 0 32 32" fill="none" xmlns="http://www.w3.org/2000/svg">
<g clip-path="url(#clip0_136_327438)">
<path d="M16 32C24.8366 32 32 24.8366 32 16C32 7.16344 24.8366 0 16 0C7.16344 0 0 7.16344 0 16C0 24.8366 7.16344 32 16 32Z" fill="white"/>
<path fill-rule="evenodd" clip-rule="evenodd" d="M16 28.5C9.09644 28.5 3.5 22.9036 3.5 16C3.5 9.09644 9.09644 3.5 16 3.5C22.9036 3.5 28.5 9.09644 28.5 16C28.5 22.9036 22.9036 28.5 16 28.5ZM16 25C20.9706 25 25 20.9706 25 16C25 11.0294 20.9706 7 16 7C11.0294 7 7 11.0294 7 16C7 20.9706 11.0294 25 16 25Z" fill="#198CFF"/>
<mask id="mask0_136_327438" style="mask-type:alpha" maskUnits="userSpaceOnUse" x="0" y="0" width="32" height="32">
<circle cx="16" cy="16" r="16" fill="#D9D9D9"/>
</mask>
<g mask="url(#mask0_136_327438)">
<circle cx="26" cy="6" r="9" fill="white"/>
</g>
<circle cx="26" cy="6" r="6" fill="#6851D6"/>
<path fill-rule="evenodd" clip-rule="evenodd" d="M14 13.4559V10.5C14 10.2239 14.2239 10 14.5 10H17.5C17.7761 10 18 10.2239 18 10.5V10.5V16.3818C18 16.5188 17.9438 16.6498 17.8445 16.7442L17.4696 17.1005C17.2694 17.2908 17.2614 17.6073 17.4516 17.8074C17.4575 17.8136 17.4634 17.8195 17.4696 17.8254L17.8445 18.1817C17.9438 18.2761 18 18.4071 18 18.5441V21.5C18 21.7761 17.7761 22 17.5 22V22H14.5C14.2239 22 14 21.7761 14 21.5V15.6182C14 15.4812 14.0562 15.3502 14.1555 15.2558L14.5304 14.8994C14.7306 14.7092 14.7386 14.3927 14.5484 14.1926C14.5425 14.1864 14.5366 14.1805 14.5304 14.1746L14.1555 13.8183C14.0562 13.7239 14 13.5929 14 13.4559V13.4559Z" fill="#333333"/>
</g>
<defs>
<clipPath id="clip0_136_327438">
<rect width="32" height="32" fill="white"/>
</clipPath>
</defs>
</svg>
