<svg width="19" height="19" viewBox="0 0 19 19" fill="none" xmlns="http://www.w3.org/2000/svg">
<g clip-path="url(#clip0_136_327616)">
<path fill-rule="evenodd" clip-rule="evenodd" d="M9.5 0C14.7472 0 19 4.25283 19 9.5C19 14.7472 14.7472 19 9.5 19C4.25283 19 0 14.7472 0 9.5C0 4.25283 4.25283 0 9.5 0Z" fill="white"/>
<path fill-rule="evenodd" clip-rule="evenodd" d="M9.49996 1.979C13.654 1.979 17.0208 5.34583 17.0208 9.49984C17.0208 13.6538 13.654 17.0207 9.49996 17.0207C5.34595 17.0207 1.97913 13.6538 1.97913 9.49984C1.97913 5.34583 5.34595 1.979 9.49996 1.979ZM9.49996 3.95817C6.43911 3.95817 3.95829 6.43899 3.95829 9.49984C3.95829 12.5607 6.43911 15.0415 9.49996 15.0415C12.5608 15.0415 15.0416 12.5607 15.0416 9.49984C15.0416 6.43899 12.5608 3.95817 9.49996 3.95817Z" fill="black" fill-opacity="0.6"/>
<mask id="mask0_136_327616" style="mask-type:alpha" maskUnits="userSpaceOnUse" x="0" y="0" width="19" height="19">
<circle cx="9.5" cy="9.5" r="9.5" fill="#D9D9D9"/>
</mask>
<g mask="url(#mask0_136_327616)">
<circle cx="15.4375" cy="3.56234" r="5.14583" fill="white"/>
</g>
<circle cx="15.4375" cy="3.5625" r="3.5625" fill="#333333"/>
<path fill-rule="evenodd" clip-rule="evenodd" d="M8.3125 5.5415H10.6875V13.4582H8.3125V5.5415Z" fill="#333333"/>
</g>
<defs>
<clipPath id="clip0_136_327616">
<rect width="19" height="19" fill="white"/>
</clipPath>
</defs>
</svg>
