<svg width="24" height="24" viewBox="0 0 24 24" fill="none" xmlns="http://www.w3.org/2000/svg">
<g clip-path="url(#clip0_113_327764)">
<path fill-rule="evenodd" clip-rule="evenodd" d="M12 0.5C18.3518 0.5 23.5 5.64819 23.5 12C23.5 18.3518 18.3518 23.5 12 23.5C5.64819 23.5 0.5 18.3518 0.5 12C0.5 5.64819 5.64819 0.5 12 0.5Z" fill="#F7F7F7" stroke="black" stroke-opacity="0.4"/>
<path fill-rule="evenodd" clip-rule="evenodd" d="M12 3C16.971 3 21 7.029 21 12C21 16.971 16.971 21 12 21C7.029 21 3 16.971 3 12C3 7.029 7.029 3 12 3ZM12 6C8.686 6 6 8.686 6 12C6 15.314 8.686 18 12 18C15.314 18 18 15.314 18 12C18 8.686 15.314 6 12 6Z" fill="black" fill-opacity="0.6"/>
<mask id="mask0_113_327764" style="mask-type:alpha" maskUnits="userSpaceOnUse" x="0" y="0" width="24" height="24">
<circle cx="12" cy="12" r="12" fill="#D9D9D9"/>
</mask>
<g mask="url(#mask0_113_327764)">
<circle cx="19.5" cy="4.5" r="6.5" fill="white"/>
</g>
<circle cx="19.5" cy="4.5" r="4.5" fill="#333333"/>
<path fill-rule="evenodd" clip-rule="evenodd" d="M11 8H13V16H11V8Z" fill="#333333"/>
</g>
<defs>
<clipPath id="clip0_113_327764">
<rect width="24" height="24" fill="white"/>
</clipPath>
</defs>
</svg>
