<svg width="48" height="48" viewBox="0 0 48 48" fill="none" xmlns="http://www.w3.org/2000/svg">
<g clip-path="url(#clip0_136_327361)">
<path fill-rule="evenodd" clip-rule="evenodd" d="M24 0.75C36.8417 0.75 47.25 11.1583 47.25 24C47.25 36.8417 36.8417 47.25 24 47.25C11.1583 47.25 0.75 36.8417 0.75 24C0.75 11.1583 11.1583 0.75 24 0.75Z" fill="white" stroke="black" stroke-opacity="0.6" stroke-width="1.5"/>
<path fill-rule="evenodd" clip-rule="evenodd" d="M24 6C33.942 6 42 14.058 42 24C42 33.942 33.942 42 24 42C14.058 42 6 33.942 6 24C6 14.058 14.058 6 24 6ZM24 10.875C16.7506 10.875 10.875 16.7506 10.875 24C10.875 31.2494 16.7506 37.125 24 37.125C31.2494 37.125 37.125 31.2494 37.125 24C37.125 16.7506 31.2494 10.875 24 10.875Z" fill="#1A8CFF"/>
<mask id="mask0_136_327361" style="mask-type:alpha" maskUnits="userSpaceOnUse" x="0" y="0" width="48" height="48">
<circle cx="24" cy="24" r="24" fill="#D9D9D9"/>
</mask>
<g mask="url(#mask0_136_327361)">
<circle cx="39" cy="9" r="13.5" fill="white"/>
</g>
<circle cx="39" cy="9" r="9" fill="#6851D6"/>
<path fill-rule="evenodd" clip-rule="evenodd" d="M21 20.1838V15.75C21 15.3358 21.3358 15 21.75 15H26.25C26.6642 15 27 15.3358 27 15.75V15.75V24.5727C27 24.7782 26.9157 24.9747 26.7667 25.1163L26.2043 25.6508C25.9041 25.9362 25.8921 26.4109 26.1775 26.7111C26.1862 26.7203 26.1952 26.7293 26.2043 26.738L26.7667 27.2726C26.9157 27.4142 27 27.6107 27 27.8162V32.25C27 32.6642 26.6642 33 26.25 33V33H21.75C21.3358 33 21 32.6642 21 32.25V23.4273C21 23.2218 21.0843 23.0253 21.2333 22.8837L21.7957 22.3492C22.0959 22.0638 22.1079 21.5891 21.8225 21.2888C21.8138 21.2797 21.8048 21.2707 21.7957 21.262L21.2333 20.7274C21.0843 20.5858 21 20.3893 21 20.1838V20.1838Z" fill="#333333"/>
</g>
<defs>
<clipPath id="clip0_136_327361">
<rect width="48" height="48" fill="white"/>
</clipPath>
</defs>
</svg>
