<svg width="24" height="24" viewBox="0 0 24 24" fill="none" xmlns="http://www.w3.org/2000/svg">
<g clip-path="url(#clip0_113_327612)">
<path fill-rule="evenodd" clip-rule="evenodd" d="M12 0C18.628 0 24 5.372 24 12C24 18.628 18.628 24 12 24C5.372 24 0 18.628 0 12C0 5.372 5.372 0 12 0Z" fill="white"/>
<path fill-rule="evenodd" clip-rule="evenodd" d="M12 2.5C17.2472 2.5 21.5 6.75283 21.5 12C21.5 17.2472 17.2472 21.5 12 21.5C6.75283 21.5 2.5 17.2472 2.5 12C2.5 6.75283 6.75283 2.5 12 2.5ZM12 5C8.13367 5 5 8.13367 5 12C5 15.8663 8.13367 19 12 19C15.8663 19 19 15.8663 19 12C19 8.13367 15.8663 5 12 5Z" fill="#198CFF"/>
<mask id="mask0_113_327612" style="mask-type:alpha" maskUnits="userSpaceOnUse" x="0" y="0" width="24" height="24">
<circle cx="12" cy="12" r="12" fill="#D9D9D9"/>
</mask>
<g mask="url(#mask0_113_327612)">
<circle cx="19.5" cy="4.5" r="6.5" fill="white"/>
</g>
<circle cx="19.5" cy="4.5" r="4.5" fill="#6851D6"/>
<path fill-rule="evenodd" clip-rule="evenodd" d="M10.5 7H13.5V17H10.5V7Z" fill="#333333"/>
</g>
<defs>
<clipPath id="clip0_113_327612">
<rect width="24" height="24" fill="white"/>
</clipPath>
</defs>
</svg>
