<svg width="48" height="48" viewBox="0 0 48 48" fill="none" xmlns="http://www.w3.org/2000/svg">
<g clip-path="url(#clip0_136_327232)">
<path fill-rule="evenodd" clip-rule="evenodd" d="M24 46.5C11.5736 46.5 1.5 36.4264 1.5 24C1.5 11.5736 11.5736 1.5 24 1.5C36.3027 1.5 46.2992 11.374 46.497 23.6295C47.0384 24.0632 47.5413 24.5429 48 25.0625V42C48 45.3137 45.3137 48 42 48H24V46.5Z" fill="#F7F7F7"/>
<path opacity="0.8" fill-rule="evenodd" clip-rule="evenodd" d="M46.497 23.6295C46.2992 11.374 36.3027 1.5 24 1.5C11.5736 1.5 1.5 11.5736 1.5 24C1.5 36.4264 11.5736 46.5 24 46.5V48C10.746 48 0 37.254 0 24C0 10.746 10.746 0 24 0C37.254 0 48 10.746 48 24C48 24.3477 47.9926 24.6936 47.978 25.0376C47.5252 24.5275 47.0297 24.0563 46.497 23.6295Z" fill="black" fill-opacity="0.6"/>
<path opacity="0.8" fill-rule="evenodd" clip-rule="evenodd" d="M24 42C14.058 42 6 33.942 6 24C6 14.058 14.058 6 24 6C33.0345 6 40.5132 12.654 41.8033 21.3292C40.9039 21.114 39.9653 21 39 21C38.2573 21 37.5304 21.0675 36.825 21.1966C35.5411 15.2944 30.2872 10.875 24 10.875C16.7506 10.875 10.875 16.7506 10.875 24C10.875 31.2494 16.7506 37.125 24 37.125V42Z" fill="#1A8CFF"/>
<mask id="mask0_136_327232" style="mask-type:alpha" maskUnits="userSpaceOnUse" x="0" y="0" width="48" height="48">
<circle cx="24" cy="24" r="24" fill="#D9D9D9"/>
</mask>
<g mask="url(#mask0_136_327232)">
<circle cx="39" cy="9" r="13.5" fill="#F7F7F7"/>
<rect x="38.25" y="17.25" width="6" height="10.5" fill="#F7F7F7"/>
</g>
<circle cx="39" cy="9" r="9" fill="#6851D6"/>
<path opacity="0.8" fill-rule="evenodd" clip-rule="evenodd" d="M21 20.1838V15.75C21 15.3358 21.3358 15 21.75 15H26.25C26.6642 15 27 15.3358 27 15.75V15.75V24.5727C27 24.7782 26.9157 24.9747 26.7667 25.1163L26.2043 25.6508C25.9041 25.9362 25.8921 26.4109 26.1775 26.7111C26.1862 26.7203 26.1952 26.7293 26.2043 26.738L26.7667 27.2726C26.9157 27.4142 27 27.6107 27 27.8162V32.25C27 32.6642 26.6642 33 26.25 33V33H21.75C21.3358 33 21 32.6642 21 32.25V23.4273C21 23.2218 21.0843 23.0253 21.2333 22.8837L21.7957 22.3492C22.0959 22.0638 22.1079 21.5891 21.8225 21.2888C21.8138 21.2797 21.8048 21.2707 21.7957 21.262L21.2333 20.7274C21.0843 20.5858 21 20.3893 21 20.1838V20.1838Z" fill="#333333"/>
<path fill-rule="evenodd" clip-rule="evenodd" d="M45 36H46.5C47.3284 36 48 36.6716 48 37.5V46.5C48 47.3284 47.3284 48 46.5 48H31.5C30.6716 48 30 47.3284 30 46.5V37.5C30 36.6716 30.6716 36 31.5 36H33V33C33 29.6863 35.6863 27 39 27C42.3137 27 45 29.6863 45 33V36ZM36 36H42V33C42 31.3431 40.6569 30 39 30C37.3431 30 36 31.3431 36 33V36Z" fill="#333333"/>
</g>
<defs>
<clipPath id="clip0_136_327232">
<rect width="48" height="48" fill="white"/>
</clipPath>
</defs>
</svg>
