<svg width="12" height="12" viewBox="0 0 12 12" fill="none" xmlns="http://www.w3.org/2000/svg">
<g clip-path="url(#clip0_113_327722)">
<path fill-rule="evenodd" clip-rule="evenodd" d="M11 5.99982C10.9999 3.23823 8.76161 1 6 1C3.23833 1 1 3.23833 1 6C1 8.76167 3.23833 11 6 11V12H11C11.5523 12 12 11.5523 12 11V8C12 7.18209 11.6072 6.45592 11 5.99982Z" fill="#F7F7F7"/>
<path opacity="0.8" fill-rule="evenodd" clip-rule="evenodd" d="M11.8759 7.2199C11.7146 6.72834 11.405 6.30401 11 5.99982C10.9999 3.23823 8.76161 1 6 1C3.23833 1 1 3.23833 1 6C1 8.76167 3.23833 11 6 11V12C2.6865 12 0 9.3135 0 6C0 2.6865 2.6865 0 6 0C9.3135 0 12 2.6865 12 6C12 6.41799 11.9572 6.826 11.8759 7.2199Z" fill="black" fill-opacity="0.4"/>
<path opacity="0.8" fill-rule="evenodd" clip-rule="evenodd" d="M10.2323 5.60895C10.0007 5.53811 9.75478 5.5 9.5 5.5C9.31726 5.5 9.1391 5.51961 8.9675 5.55683C8.75333 4.11001 7.50643 3 6 3C4.343 3 3 4.343 3 6C3 7.657 4.343 9 6 9V10.25C3.65258 10.25 1.75 8.34742 1.75 6C1.75 3.65258 3.65258 1.75 6 1.75C8.21558 1.75 10.0349 3.44487 10.2323 5.60895Z" fill="black" fill-opacity="0.6"/>
<mask id="mask0_113_327722" style="mask-type:alpha" maskUnits="userSpaceOnUse" x="0" y="0" width="12" height="12">
<circle cx="6" cy="6" r="6" fill="#D9D9D9"/>
</mask>
<g mask="url(#mask0_113_327722)">
<circle cx="9.75" cy="2.25" r="3.25" fill="#F7F7F7"/>
<rect x="8.5" y="2.5" width="2.5" height="5" fill="#F7F7F7"/>
</g>
<circle cx="9.75" cy="2.25" r="2.25" fill="#333333"/>
<path opacity="0.8" fill-rule="evenodd" clip-rule="evenodd" d="M5.5 4H6.5V8H5.5V4Z" fill="#333333"/>
<path fill-rule="evenodd" clip-rule="evenodd" d="M8 9V8C8 7.17157 8.67157 6.5 9.5 6.5C10.3284 6.5 11 7.17157 11 8V9H11.5C11.7761 9 12 9.22386 12 9.5V11.5C12 11.7761 11.7761 12 11.5 12H7.5C7.22386 12 7 11.7761 7 11.5V9.5C7 9.22386 7.22386 9 7.5 9H8ZM9 9H10V8C10 7.72386 9.77614 7.5 9.5 7.5C9.22386 7.5 9 7.72386 9 8V9Z" fill="#333333"/>
</g>
<defs>
<clipPath id="clip0_113_327722">
<rect width="12" height="12" fill="white"/>
</clipPath>
</defs>
</svg>
