<svg width="16" height="16" viewBox="0 0 16 16" fill="none" xmlns="http://www.w3.org/2000/svg">
<g clip-path="url(#clip0_113_327759)">
<path fill-rule="evenodd" clip-rule="evenodd" d="M8 0.5C12.1425 0.5 15.5 3.85752 15.5 8C15.5 12.1425 12.1425 15.5 8 15.5C3.85752 15.5 0.5 12.1425 0.5 8C0.5 3.85752 3.85752 0.5 8 0.5Z" fill="#F7F7F7" stroke="black" stroke-opacity="0.4"/>
<path fill-rule="evenodd" clip-rule="evenodd" d="M8 2C11.314 2 14 4.686 14 8C14 11.314 11.314 14 8 14C4.686 14 2 11.314 2 8C2 4.686 4.686 2 8 2ZM8 4C5.79067 4 4 5.79067 4 8C4 10.2093 5.79067 12 8 12C10.2093 12 12 10.2093 12 8C12 5.79067 10.2093 4 8 4Z" fill="black" fill-opacity="0.6"/>
<mask id="mask0_113_327759" style="mask-type:alpha" maskUnits="userSpaceOnUse" x="0" y="0" width="16" height="16">
<circle cx="8" cy="8" r="8" fill="#D9D9D9"/>
</mask>
<g mask="url(#mask0_113_327759)">
<circle cx="13" cy="3" r="4.5" fill="white"/>
</g>
<circle cx="13" cy="3" r="3" fill="#333333"/>
<path fill-rule="evenodd" clip-rule="evenodd" d="M7 5H9V11H7V5Z" fill="#333333"/>
</g>
<defs>
<clipPath id="clip0_113_327759">
<rect width="16" height="16" fill="white"/>
</clipPath>
</defs>
</svg>
