<svg width="48" height="48" viewBox="0 0 48 48" fill="none" xmlns="http://www.w3.org/2000/svg">
<g clip-path="url(#clip0_136_327280)">
<path d="M24 48C37.2548 48 48 37.2548 48 24C48 10.7452 37.2548 0 24 0C10.7452 0 0 10.7452 0 24C0 37.2548 10.7452 48 24 48Z" fill="white"/>
<path opacity="0.8" fill-rule="evenodd" clip-rule="evenodd" d="M24 42.75C13.6447 42.75 5.25 34.3553 5.25 24C5.25 13.6447 13.6447 5.25 24 5.25C34.3553 5.25 42.75 13.6447 42.75 24C42.75 34.3553 34.3553 42.75 24 42.75ZM24 37.5C31.4558 37.5 37.5 31.4558 37.5 24C37.5 16.5442 31.4558 10.5 24 10.5C16.5442 10.5 10.5 16.5442 10.5 24C10.5 31.4558 16.5442 37.5 24 37.5Z" fill="#198CFF"/>
<mask id="mask0_136_327280" style="mask-type:alpha" maskUnits="userSpaceOnUse" x="0" y="0" width="48" height="48">
<circle cx="24" cy="24" r="24" fill="#D9D9D9"/>
</mask>
<g mask="url(#mask0_136_327280)">
<circle cx="39" cy="9" r="13.5" fill="white"/>
<rect x="38.25" y="17.25" width="6" height="10.5" fill="white"/>
</g>
<circle cx="39" cy="9" r="9" fill="#6851D6"/>
<path fill-rule="evenodd" clip-rule="evenodd" d="M43.5 31.5C45.1569 31.5 46.5 32.8431 46.5 34.5V43.5C46.5 45.1569 45.1569 46.5 43.5 46.5H28.5C26.8431 46.5 25.5 45.1569 25.5 43.5V34.5C25.5 32.8431 26.8431 31.5 28.5 31.5V30C28.5 25.8579 31.8579 22.5 36 22.5C40.1421 22.5 43.5 25.8579 43.5 30V31.5ZM34.5 31.5H37.5V30C37.5 29.1716 36.8284 28.5 36 28.5C35.1716 28.5 34.5 29.1716 34.5 30V31.5Z" fill="#333333" stroke="white" stroke-width="3"/>
<path opacity="0.8" fill-rule="evenodd" clip-rule="evenodd" d="M21 20.1838V15.75C21 15.3358 21.3358 15 21.75 15H26.25C26.6642 15 27 15.3358 27 15.75V24.5727C27 24.7782 26.9157 24.9747 26.7667 25.1163L26.2043 25.6508C25.9041 25.9362 25.8921 26.4109 26.1775 26.7111C26.1862 26.7203 26.1952 26.7293 26.2043 26.738L26.7667 27.2726C26.9157 27.4142 27 27.6107 27 27.8162V32.25C27 32.6642 26.6642 33 26.25 33H21.75C21.3358 33 21 32.6642 21 32.25V23.4273C21 23.2218 21.0843 23.0253 21.2333 22.8837L21.7957 22.3492C22.0959 22.0638 22.1079 21.5891 21.8225 21.2888C21.8138 21.2797 21.8048 21.2707 21.7957 21.262L21.2333 20.7274C21.0843 20.5858 21 20.3893 21 20.1838Z" fill="#333333"/>
</g>
<defs>
<clipPath id="clip0_136_327280">
<rect width="48" height="48" fill="white"/>
</clipPath>
</defs>
</svg>
