<svg width="24" height="24" viewBox="0 0 24 24" fill="none" xmlns="http://www.w3.org/2000/svg">
<g clip-path="url(#clip0_113_327738)">
<path fill-rule="evenodd" clip-rule="evenodd" d="M22 24H12.4013C12.2257 23.6963 12.1017 23.3589 12.0415 22.9999C5.92433 23 1 18.0757 1 12C1 5.92433 5.92433 1 12 1C17.949 1 22.7941 5.72111 22.9936 11.6215C23.3625 11.8861 23.7002 12.1916 24 12.5313V22C24 23.1046 23.1046 24 22 24Z" fill="#F7F7F7"/>
<path opacity="0.8" fill-rule="evenodd" clip-rule="evenodd" d="M12.3976 23.9935C12.2656 23.9978 12.1331 24 12 24C5.373 24 0 18.627 0 12C0 5.373 5.373 0 12 0C18.627 0 24 5.373 24 12C24 12.1738 23.9963 12.3468 23.989 12.5188C23.6919 12.1841 23.358 11.8829 22.9936 11.6215C22.7941 5.72111 17.949 1 12 1C5.92433 1 1 5.92433 1 12C1 18.0757 5.92433 23 12 23C12.0138 23 12.0277 23 12.0415 22.9999C12.1013 23.3564 12.2239 23.6915 12.3976 23.9935Z" fill="black" fill-opacity="0.4"/>
<path opacity="0.8" fill-rule="evenodd" clip-rule="evenodd" d="M12 21C7.029 21 3 16.971 3 12C3 7.029 7.029 3 12 3C16.5172 3 20.2566 6.32702 20.9016 10.6646C20.452 10.557 19.9826 10.5 19.5 10.5C18.933 10.5 18.3844 10.5786 17.8644 10.7256C17.2802 8.0239 14.8767 6 12 6C8.686 6 6 8.686 6 12C6 15.314 8.686 18 12 18V21Z" fill="black" fill-opacity="0.6"/>
<mask id="mask0_113_327738" style="mask-type:alpha" maskUnits="userSpaceOnUse" x="0" y="0" width="24" height="24">
<circle cx="12" cy="12" r="12" fill="#D9D9D9"/>
</mask>
<g mask="url(#mask0_113_327738)">
<circle cx="19.5" cy="4.5" r="6.5" fill="#F7F7F7"/>
<rect x="18.5" y="8.5" width="3.5" height="5" fill="#F7F7F7"/>
</g>
<circle cx="19.5" cy="4.5" r="4.5" fill="#333333"/>
<path opacity="0.8" fill-rule="evenodd" clip-rule="evenodd" d="M11 8H13V16H11V8Z" fill="#333333"/>
<path fill-rule="evenodd" clip-rule="evenodd" d="M22.5 18C23.3284 18 24 18.6716 24 19.5V22.5C24 23.3284 23.3284 24 22.5 24H16.5C15.6716 24 15 23.3284 15 22.5V19.5C15 18.6716 15.6716 18 16.5 18V16.5C16.5 14.8431 17.8431 13.5 19.5 13.5C21.1569 13.5 22.5 14.8431 22.5 16.5V18ZM18 18H21V16.5C21 15.6716 20.3284 15 19.5 15C18.6716 15 18 15.6716 18 16.5V18Z" fill="#333333"/>
</g>
<defs>
<clipPath id="clip0_113_327738">
<rect width="24" height="24" fill="white"/>
</clipPath>
</defs>
</svg>
