<svg width="72" height="72" viewBox="0 0 72 72" fill="none" xmlns="http://www.w3.org/2000/svg">
<g clip-path="url(#clip0_118_328507)">
<path fill-rule="evenodd" clip-rule="evenodd" d="M36 69.75C17.3604 69.75 2.25 54.6396 2.25 36C2.25 17.3604 17.3604 2.25 36 2.25C54.454 2.25 69.4488 17.061 69.7455 35.4443C70.5576 36.0949 71.312 36.8143 72 37.5938V63C72 67.9706 67.9706 72 63 72H36V69.75Z" fill="#F7F7F7"/>
<path opacity="0.8" fill-rule="evenodd" clip-rule="evenodd" d="M69.7455 35.4443C69.4488 17.061 54.454 2.25 36 2.25C17.3604 2.25 2.25 17.3604 2.25 36C2.25 54.6396 17.3604 69.75 36 69.75V72C16.119 72 0 55.881 0 36C0 16.119 16.119 0 36 0C55.881 0 72 16.119 72 36C72 36.5215 71.9889 37.0404 71.967 37.5564C71.2879 36.7913 70.5446 36.0845 69.7455 35.4443Z" fill="black" fill-opacity="0.6"/>
<path opacity="0.8" fill-rule="evenodd" clip-rule="evenodd" d="M36 63C21.087 63 9 50.913 9 36C9 21.087 21.087 9 36 9C49.5517 9 60.7698 18.9811 62.7049 31.9938C61.3559 31.671 59.9479 31.5 58.5 31.5C57.386 31.5 56.2956 31.6012 55.2375 31.7949C53.3117 22.9417 45.4308 16.3125 36 16.3125C25.1259 16.3125 16.3125 25.1259 16.3125 36C16.3125 46.8741 25.1259 55.6875 36 55.6875V63Z" fill="#1A8CFF"/>
<mask id="mask0_118_328507" style="mask-type:alpha" maskUnits="userSpaceOnUse" x="0" y="0" width="72" height="72">
<circle cx="36" cy="36" r="36" fill="#D9D9D9"/>
</mask>
<g mask="url(#mask0_118_328507)">
<circle cx="58.5" cy="13.5" r="20.25" fill="#F7F7F7"/>
<rect x="57.375" y="25.875" width="9" height="15.75" fill="#F7F7F7"/>
</g>
<circle cx="58.5" cy="13.5" r="13.5" fill="#6851D6"/>
<path opacity="0.8" fill-rule="evenodd" clip-rule="evenodd" d="M31.5 30.2757V23.625C31.5 23.0037 32.0037 22.5 32.625 22.5H39.375C39.9963 22.5 40.5 23.0037 40.5 23.625V23.625V36.859C40.5 37.1673 40.3735 37.462 40.1501 37.6744L39.3065 38.4762C38.8562 38.9043 38.8381 39.6164 39.2662 40.0667C39.2793 40.0805 39.2927 40.0939 39.3065 40.107L40.1501 40.9089C40.3735 41.1213 40.5 41.416 40.5 41.7243V48.375C40.5 48.9963 39.9963 49.5 39.375 49.5V49.5H32.625C32.0037 49.5 31.5 48.9963 31.5 48.375V35.141C31.5 34.8327 31.6265 34.538 31.8499 34.3256L32.6935 33.5238C33.1438 33.0957 33.1619 32.3836 32.7338 31.9333C32.7207 31.9195 32.7073 31.906 32.6935 31.893L31.8499 31.0911C31.6265 30.8787 31.5 30.584 31.5 30.2757V30.2757Z" fill="#333333"/>
<path fill-rule="evenodd" clip-rule="evenodd" d="M67.5 54H69.75C70.9926 54 72 55.0074 72 56.25V69.75C72 70.9926 70.9926 72 69.75 72H47.25C46.0074 72 45 70.9926 45 69.75V56.25C45 55.0074 46.0074 54 47.25 54H49.5V49.5C49.5 44.5294 53.5294 40.5 58.5 40.5C63.4706 40.5 67.5 44.5294 67.5 49.5V54ZM54 54H63V49.5C63 47.0147 60.9853 45 58.5 45C56.0147 45 54 47.0147 54 49.5V54Z" fill="#333333"/>
</g>
<defs>
<clipPath id="clip0_118_328507">
<rect width="72" height="72" fill="white"/>
</clipPath>
</defs>
</svg>
