<svg width="38" height="38" viewBox="0 0 38 38" fill="none" xmlns="http://www.w3.org/2000/svg">
<g clip-path="url(#clip0_136_327480)">
<path fill-rule="evenodd" clip-rule="evenodd" d="M19 36.8125C9.16156 36.8125 1.1875 28.8384 1.1875 19C1.1875 9.16156 9.16156 1.1875 19 1.1875C28.7405 1.1875 36.6535 9.00359 36.8101 18.7067C37.2387 19.0501 37.6369 19.4298 38 19.8412V33.25C38 35.8734 35.8734 38 33.25 38H19V36.8125Z" fill="#F7F7F7"/>
<path opacity="0.8" fill-rule="evenodd" clip-rule="evenodd" d="M36.8101 18.7067C36.6535 9.00359 28.7405 1.1875 19 1.1875C9.16156 1.1875 1.1875 9.16156 1.1875 19C1.1875 28.8384 9.16156 36.8125 19 36.8125V38C8.50725 38 0 29.4928 0 19C0 8.50725 8.50725 0 19 0C29.4928 0 38 8.50725 38 19C38 19.2752 37.9941 19.5491 37.9826 19.8215C37.6242 19.4176 37.2319 19.0446 36.8101 18.7067Z" fill="black" fill-opacity="0.4"/>
<path opacity="0.8" fill-rule="evenodd" clip-rule="evenodd" d="M29.1531 16.7807C28.1367 12.1081 23.9774 8.60938 19 8.60938C13.2609 8.60938 8.60938 13.2609 8.60938 19C8.60938 24.7391 13.2609 29.3906 19 29.3906V33.25C11.1293 33.25 4.75 26.8707 4.75 19C4.75 11.1293 11.1293 4.75 19 4.75C26.1523 4.75 32.0729 10.0178 33.0943 16.8856C32.3823 16.7152 31.6392 16.625 30.875 16.625C30.287 16.625 29.7116 16.6784 29.1531 16.7807Z" fill="black" fill-opacity="0.6"/>
<mask id="mask0_136_327480" style="mask-type:alpha" maskUnits="userSpaceOnUse" x="0" y="0" width="38" height="38">
<circle cx="19" cy="19" r="19" fill="#D9D9D9"/>
</mask>
<g mask="url(#mask0_136_327480)">
<circle cx="30.875" cy="7.125" r="10.6875" fill="#F7F7F7"/>
<rect x="30.2812" y="13.6562" width="4.75" height="8.3125" fill="#F7F7F7"/>
</g>
<circle cx="30.875" cy="7.125" r="7.125" fill="#333333"/>
<path opacity="0.8" fill-rule="evenodd" clip-rule="evenodd" d="M16.625 15.9788V12.4688C16.625 12.1408 16.8908 11.875 17.2188 11.875H20.7812C21.1092 11.875 21.375 12.1408 21.375 12.4688V12.4688V19.4534C21.375 19.6161 21.3082 19.7716 21.1903 19.8837L20.7451 20.3069C20.5074 20.5328 20.4979 20.9086 20.7238 21.1463C20.7307 21.1536 20.7378 21.1607 20.7451 21.1676L21.1903 21.5908C21.3082 21.7029 21.375 21.8585 21.375 22.0211V25.5312C21.375 25.8592 21.1092 26.125 20.7812 26.125V26.125H17.2188C16.8908 26.125 16.625 25.8592 16.625 25.5312V18.5466C16.625 18.3839 16.6918 18.2284 16.8097 18.1163L17.2549 17.6931C17.4926 17.4672 17.5021 17.0913 17.2762 16.8537C17.2693 16.8464 17.2622 16.8393 17.2549 16.8324L16.8097 16.4092C16.6918 16.2971 16.625 16.1415 16.625 15.9788V15.9788Z" fill="#333333"/>
<path fill-rule="evenodd" clip-rule="evenodd" d="M35.625 28.5H36.8125C37.4683 28.5 38 29.0317 38 29.6875V36.8125C38 37.4683 37.4683 38 36.8125 38H24.9375C24.2817 38 23.75 37.4683 23.75 36.8125V29.6875C23.75 29.0317 24.2817 28.5 24.9375 28.5H26.125V26.125C26.125 23.5016 28.2516 21.375 30.875 21.375C33.4984 21.375 35.625 23.5016 35.625 26.125V28.5ZM28.5 28.5H33.25V26.125C33.25 24.8133 32.1867 23.75 30.875 23.75C29.5633 23.75 28.5 24.8133 28.5 26.125V28.5Z" fill="#333333"/>
</g>
<defs>
<clipPath id="clip0_136_327480">
<rect width="38" height="38" fill="white"/>
</clipPath>
</defs>
</svg>
