<svg width="19" height="19" viewBox="0 0 19 19" fill="none" xmlns="http://www.w3.org/2000/svg">
<g clip-path="url(#clip0_136_327451)">
<path fill-rule="evenodd" clip-rule="evenodd" d="M17.4166 19.0003H9.81769C9.6786 18.7599 9.58046 18.4928 9.53279 18.2086C4.69006 18.2087 0.791626 14.3102 0.791626 9.50033C0.791626 4.69042 4.69006 0.791992 9.49996 0.791992C14.2096 0.791992 18.0453 4.52953 18.2032 9.20065C18.4953 9.41017 18.7626 9.652 19 9.92091V17.417C19 18.2914 18.2911 19.0003 17.4166 19.0003V19.0003Z" fill="#F7F7F7"/>
<path opacity="0.8" fill-rule="evenodd" clip-rule="evenodd" d="M9.81478 18.9949C9.71027 18.9983 9.60534 19 9.5 19C4.25363 19 0 14.7464 0 9.5C0 4.25363 4.25363 0 9.5 0C14.7464 0 19 4.25363 19 9.5C19 9.63761 18.9971 9.77454 18.9913 9.91073C18.7561 9.64576 18.4918 9.40728 18.2033 9.20032C18.0454 4.52921 14.2096 0.791667 9.5 0.791667C4.6901 0.791667 0.791667 4.6901 0.791667 9.5C0.791667 14.3099 4.6901 18.2083 9.5 18.2083C9.51095 18.2083 9.52189 18.2083 9.53283 18.2083C9.58016 18.4905 9.67726 18.7558 9.81478 18.9949V18.9949Z" fill="black" fill-opacity="0.4"/>
<path opacity="0.8" fill-rule="evenodd" clip-rule="evenodd" d="M9.5 16.625C5.56462 16.625 2.375 13.4354 2.375 9.5C2.375 5.56462 5.56462 2.375 9.5 2.375C13.0761 2.375 16.0365 5.00889 16.5471 8.44281C16.1911 8.35761 15.8196 8.3125 15.4375 8.3125C14.9886 8.3125 14.5543 8.37476 14.1427 8.49113C13.6802 6.35226 11.7774 4.75 9.5 4.75C6.87642 4.75 4.75 6.87642 4.75 9.5C4.75 12.1236 6.87642 14.25 9.5 14.25V16.625Z" fill="black" fill-opacity="0.6"/>
<mask id="mask0_136_327451" style="mask-type:alpha" maskUnits="userSpaceOnUse" x="0" y="0" width="19" height="19">
<circle cx="9.5" cy="9.5" r="9.5" fill="#D9D9D9"/>
</mask>
<g mask="url(#mask0_136_327451)">
<circle cx="15.4375" cy="3.56283" r="5.14583" fill="#F7F7F7"/>
<rect x="14.6459" y="6.72949" width="2.77083" height="3.95833" fill="#F7F7F7"/>
</g>
<circle cx="15.4375" cy="3.5625" r="3.5625" fill="#333333"/>
<path opacity="0.8" fill-rule="evenodd" clip-rule="evenodd" d="M8.70862 6.33301H10.292V12.6663H8.70862V6.33301Z" fill="#333333"/>
<path fill-rule="evenodd" clip-rule="evenodd" d="M17.8127 14.25C18.4686 14.25 19.0002 14.7817 19.0002 15.4375V17.8125C19.0002 18.4683 18.4686 19 17.8127 19H13.0627C12.4069 19 11.8752 18.4683 11.8752 17.8125V15.4375C11.8752 14.7817 12.4069 14.25 13.0627 14.25V13.0625C13.0627 11.7508 14.1261 10.6875 15.4377 10.6875C16.7494 10.6875 17.8127 11.7508 17.8127 13.0625V14.25ZM14.2502 14.25H16.6252V13.0625C16.6252 12.4067 16.0936 11.875 15.4377 11.875C14.7819 11.875 14.2502 12.4067 14.2502 13.0625V14.25Z" fill="#333333"/>
</g>
<defs>
<clipPath id="clip0_136_327451">
<rect width="19" height="19" fill="white"/>
</clipPath>
</defs>
</svg>
