<svg width="24" height="24" viewBox="0 0 24 24" fill="none" xmlns="http://www.w3.org/2000/svg">
<g clip-path="url(#clip0_113_327636)">
<path fill-rule="evenodd" clip-rule="evenodd" d="M12 0C18.628 0 24 5.372 24 12C24 18.628 18.628 24 12 24C5.372 24 0 18.628 0 12C0 5.372 5.372 0 12 0Z" fill="white"/>
<path opacity="0.8" fill-rule="evenodd" clip-rule="evenodd" d="M21.3805 13.5113C20.8386 12.7279 19.9855 12.1764 18.9999 12.0354C19 12.0236 19 12.0118 19 12C19 8.13367 15.8663 5 12 5C8.13367 5 5 8.13367 5 12C5 15.8663 8.13367 19 12 19C13.4368 19 14.7725 18.5672 15.8837 17.8249C16.5091 18.5282 17.4139 18.9777 18.4239 18.9992C16.7328 20.5521 14.4772 21.5 12 21.5C6.75283 21.5 2.5 17.2472 2.5 12C2.5 6.75283 6.75283 2.5 12 2.5C17.2472 2.5 21.5 6.75283 21.5 12C21.5 12.5143 21.4591 13.0191 21.3805 13.5113Z" fill="black" fill-opacity="0.6"/>
<mask id="mask0_113_327636" style="mask-type:alpha" maskUnits="userSpaceOnUse" x="0" y="0" width="24" height="24">
<circle cx="12" cy="12" r="12" fill="#D9D9D9"/>
</mask>
<g mask="url(#mask0_113_327636)">
<circle cx="19.5" cy="4.5" r="6.5" fill="white"/>
<rect x="18.5" y="8.5" width="3.5" height="5" fill="white"/>
</g>
<circle cx="19.5" cy="4.5" r="4.5" fill="#333333"/>
<path opacity="0.8" fill-rule="evenodd" clip-rule="evenodd" d="M10.5 7H13.5V17H10.5V7Z" fill="#333333"/>
<path fill-rule="evenodd" clip-rule="evenodd" d="M22 16.563C22.8626 16.785 23.5 17.5681 23.5 18.5V21.5C23.5 22.6046 22.6046 23.5 21.5 23.5H15.5C14.3954 23.5 13.5 22.6046 13.5 21.5V18.5C13.5 17.5681 14.1374 16.785 15 16.563V15.5C15 13.567 16.567 12 18.5 12C20.433 12 22 13.567 22 15.5V16.563ZM17.5 16.5H19.5V15.5C19.5 14.9477 19.0523 14.5 18.5 14.5C17.9477 14.5 17.5 14.9477 17.5 15.5V16.5Z" fill="#333333" stroke="white"/>
</g>
<defs>
<clipPath id="clip0_113_327636">
<rect width="24" height="24" fill="white"/>
</clipPath>
</defs>
</svg>
