<svg width="72" height="72" viewBox="0 0 72 72" fill="none" xmlns="http://www.w3.org/2000/svg">
<g clip-path="url(#clip0_118_328602)">
<path d="M36 72C55.8823 72 72 55.8823 72 36C72 16.1177 55.8823 0 36 0C16.1177 0 0 16.1177 0 36C0 55.8823 16.1177 72 36 72Z" fill="white"/>
<path fill-rule="evenodd" clip-rule="evenodd" d="M36 64.125C20.467 64.125 7.875 51.533 7.875 36C7.875 20.467 20.467 7.875 36 7.875C51.533 7.875 64.125 20.467 64.125 36C64.125 51.533 51.533 64.125 36 64.125ZM36 56.25C47.1838 56.25 56.25 47.1838 56.25 36C56.25 24.8162 47.1838 15.75 36 15.75C24.8162 15.75 15.75 24.8162 15.75 36C15.75 47.1838 24.8162 56.25 36 56.25Z" fill="black" fill-opacity="0.6"/>
<mask id="mask0_118_328602" style="mask-type:alpha" maskUnits="userSpaceOnUse" x="0" y="0" width="72" height="72">
<circle cx="36" cy="36" r="36" fill="#D9D9D9"/>
</mask>
<g mask="url(#mask0_118_328602)">
<circle cx="58.5" cy="13.5" r="20.25" fill="white"/>
</g>
<circle cx="58.5" cy="13.5" r="13.5" fill="#333333"/>
<path fill-rule="evenodd" clip-rule="evenodd" d="M31.5 30.2757V23.625C31.5 23.0037 32.0037 22.5 32.625 22.5H39.375C39.9963 22.5 40.5 23.0037 40.5 23.625V23.625V36.859C40.5 37.1673 40.3735 37.462 40.1501 37.6744L39.3065 38.4762C38.8562 38.9043 38.8381 39.6164 39.2662 40.0667C39.2793 40.0805 39.2927 40.0939 39.3065 40.107L40.1501 40.9089C40.3735 41.1213 40.5 41.416 40.5 41.7243V48.375C40.5 48.9963 39.9963 49.5 39.375 49.5V49.5H32.625C32.0037 49.5 31.5 48.9963 31.5 48.375V35.141C31.5 34.8327 31.6265 34.538 31.8499 34.3256L32.6935 33.5238C33.1438 33.0957 33.1619 32.3836 32.7338 31.9333C32.7207 31.9195 32.7073 31.906 32.6935 31.893L31.8499 31.0911C31.6265 30.8787 31.5 30.584 31.5 30.2757V30.2757Z" fill="#333333"/>
</g>
<defs>
<clipPath id="clip0_118_328602">
<rect width="72" height="72" fill="white"/>
</clipPath>
</defs>
</svg>
