<svg width="12" height="12" viewBox="0 0 12 12" fill="none" xmlns="http://www.w3.org/2000/svg">
<g clip-path="url(#clip0_113_327754)">
<path fill-rule="evenodd" clip-rule="evenodd" d="M6 0.5C9.03781 0.5 11.5 2.96219 11.5 6C11.5 9.03781 9.03781 11.5 6 11.5C2.96219 11.5 0.5 9.03781 0.5 6C0.5 2.96219 2.96219 0.5 6 0.5Z" fill="white" stroke="black" stroke-opacity="0.4"/>
<path fill-rule="evenodd" clip-rule="evenodd" d="M6 1.75C8.34742 1.75 10.25 3.65258 10.25 6C10.25 8.34742 8.34742 10.25 6 10.25C3.65258 10.25 1.75 8.34742 1.75 6C1.75 3.65258 3.65258 1.75 6 1.75ZM6 3C4.343 3 3 4.343 3 6C3 7.657 4.343 9 6 9C7.657 9 9 7.657 9 6C9 4.343 7.657 3 6 3Z" fill="black" fill-opacity="0.6"/>
<mask id="mask0_113_327754" style="mask-type:alpha" maskUnits="userSpaceOnUse" x="0" y="0" width="12" height="12">
<circle cx="6" cy="6" r="6" fill="#D9D9D9"/>
</mask>
<g mask="url(#mask0_113_327754)">
<circle cx="9.75" cy="2.25" r="3.25" fill="white"/>
</g>
<circle cx="9.75" cy="2.25" r="2.25" fill="#333333"/>
<path fill-rule="evenodd" clip-rule="evenodd" d="M5.5 4H6.5V8H5.5V4Z" fill="#333333"/>
</g>
<defs>
<clipPath id="clip0_113_327754">
<rect width="12" height="12" fill="white"/>
</clipPath>
</defs>
</svg>
