<svg width="32" height="32" viewBox="0 0 32 32" fill="none" xmlns="http://www.w3.org/2000/svg">
<g clip-path="url(#clip0_136_327264)">
<path fill-rule="evenodd" clip-rule="evenodd" d="M16 31C7.71573 31 1 24.2843 1 16C1 7.71573 7.71573 1 16 1C24.2018 1 30.8661 7.58267 30.998 15.753C31.3589 16.0422 31.6942 16.3619 32 16.7084V28C32 30.2091 30.2091 32 28 32H16V31Z" fill="#F7F7F7"/>
<path opacity="0.8" fill-rule="evenodd" clip-rule="evenodd" d="M30.998 15.753C30.8661 7.58267 24.2018 1 16 1C7.71573 1 1 7.71573 1 16C1 24.2843 7.71573 31 16 31V32C7.164 32 0 24.836 0 16C0 7.164 7.164 0 16 0C24.836 0 32 7.164 32 16C32 16.2318 31.9951 16.4624 31.9853 16.6918C31.6835 16.3517 31.3531 16.0375 30.998 15.753Z" fill="black" fill-opacity="0.6"/>
<path opacity="0.8" fill-rule="evenodd" clip-rule="evenodd" d="M16 28C9.372 28 4 22.628 4 16C4 9.372 9.372 4 16 4C22.023 4 27.0088 8.43602 27.8688 14.2195C27.2693 14.076 26.6435 14 26 14C25.5049 14 25.0203 14.045 24.55 14.1311C23.6941 10.1963 20.1915 7.25 16 7.25C11.1671 7.25 7.25 11.1671 7.25 16C7.25 20.8329 11.1671 24.75 16 24.75V28Z" fill="#1A8CFF"/>
<mask id="mask0_136_327264" style="mask-type:alpha" maskUnits="userSpaceOnUse" x="0" y="0" width="32" height="32">
<circle cx="16" cy="16" r="16" fill="#D9D9D9"/>
</mask>
<g mask="url(#mask0_136_327264)">
<circle cx="26" cy="6" r="9" fill="#F7F7F7"/>
<rect x="25.5" y="11.5" width="4" height="7" fill="#F7F7F7"/>
</g>
<circle cx="26" cy="6" r="6" fill="#6851D6"/>
<path opacity="0.8" fill-rule="evenodd" clip-rule="evenodd" d="M14 13.4559V10.5C14 10.2239 14.2239 10 14.5 10H17.5C17.7761 10 18 10.2239 18 10.5V10.5V16.3818C18 16.5188 17.9438 16.6498 17.8445 16.7442L17.4696 17.1005C17.2694 17.2908 17.2614 17.6073 17.4516 17.8074C17.4575 17.8136 17.4634 17.8195 17.4696 17.8254L17.8445 18.1817C17.9438 18.2761 18 18.4071 18 18.5441V21.5C18 21.7761 17.7761 22 17.5 22V22H14.5C14.2239 22 14 21.7761 14 21.5V15.6182C14 15.4812 14.0562 15.3502 14.1555 15.2558L14.5304 14.8994C14.7306 14.7092 14.7386 14.3927 14.5484 14.1926C14.5425 14.1864 14.5366 14.1805 14.5304 14.1746L14.1555 13.8183C14.0562 13.7239 14 13.5929 14 13.4559V13.4559Z" fill="#333333"/>
<path fill-rule="evenodd" clip-rule="evenodd" d="M30 24H31C31.5523 24 32 24.4477 32 25V31C32 31.5523 31.5523 32 31 32H21C20.4477 32 20 31.5523 20 31V25C20 24.4477 20.4477 24 21 24H22V22C22 19.7909 23.7909 18 26 18C28.2091 18 30 19.7909 30 22V24ZM24 24H28V22C28 20.8954 27.1046 20 26 20C24.8954 20 24 20.8954 24 22V24Z" fill="#333333"/>
</g>
<defs>
<clipPath id="clip0_136_327264">
<rect width="32" height="32" fill="white"/>
</clipPath>
</defs>
</svg>
