<svg width="32" height="32" viewBox="0 0 32 32" fill="none" xmlns="http://www.w3.org/2000/svg">
<g clip-path="url(#clip0_136_327603)">
<path fill-rule="evenodd" clip-rule="evenodd" d="M16 0.5C24.5611 0.5 31.5 7.43886 31.5 16C31.5 24.5611 24.5611 31.5 16 31.5C7.43886 31.5 0.5 24.5611 0.5 16C0.5 7.43886 7.43886 0.5 16 0.5Z" fill="white" stroke="black" stroke-opacity="0.6"/>
<path fill-rule="evenodd" clip-rule="evenodd" d="M16 4C22.628 4 28 9.372 28 16C28 22.628 22.628 28 16 28C9.372 28 4 22.628 4 16C4 9.372 9.372 4 16 4ZM16 7.25C11.1671 7.25 7.25 11.1671 7.25 16C7.25 20.8329 11.1671 24.75 16 24.75C20.8329 24.75 24.75 20.8329 24.75 16C24.75 11.1671 20.8329 7.25 16 7.25Z" fill="black" fill-opacity="0.6"/>
<mask id="mask0_136_327603" style="mask-type:alpha" maskUnits="userSpaceOnUse" x="0" y="0" width="32" height="32">
<circle cx="16" cy="16" r="16" fill="#D9D9D9"/>
</mask>
<g mask="url(#mask0_136_327603)">
<circle cx="26" cy="6" r="9" fill="white"/>
</g>
<circle cx="26" cy="6" r="6" fill="#333333"/>
<path fill-rule="evenodd" clip-rule="evenodd" d="M14 13.4559V10.5C14 10.2239 14.2239 10 14.5 10H17.5C17.7761 10 18 10.2239 18 10.5V10.5V16.3818C18 16.5188 17.9438 16.6498 17.8445 16.7442L17.4696 17.1005C17.2694 17.2908 17.2614 17.6073 17.4516 17.8074C17.4575 17.8136 17.4634 17.8195 17.4696 17.8254L17.8445 18.1817C17.9438 18.2761 18 18.4071 18 18.5441V21.5C18 21.7761 17.7761 22 17.5 22V22H14.5C14.2239 22 14 21.7761 14 21.5V15.6182C14 15.4812 14.0562 15.3502 14.1555 15.2558L14.5304 14.8994C14.7306 14.7092 14.7386 14.3927 14.5484 14.1926C14.5425 14.1864 14.5366 14.1805 14.5304 14.1746L14.1555 13.8183C14.0562 13.7239 14 13.5929 14 13.4559V13.4559Z" fill="#333333"/>
</g>
<defs>
<clipPath id="clip0_136_327603">
<rect width="32" height="32" fill="white"/>
</clipPath>
</defs>
</svg>
