<svg width="19" height="19" viewBox="0 0 19 19" fill="none" xmlns="http://www.w3.org/2000/svg">
<g clip-path="url(#clip0_136_327510)">
<path fill-rule="evenodd" clip-rule="evenodd" d="M9.5 0C14.7472 0 19 4.25283 19 9.5C19 14.7472 14.7472 19 9.5 19C4.25283 19 0 14.7472 0 9.5C0 4.25283 4.25283 0 9.5 0Z" fill="white"/>
<path opacity="0.8" fill-rule="evenodd" clip-rule="evenodd" d="M16.9262 10.6963C16.4972 10.0761 15.8218 9.63947 15.0416 9.52789C15.0416 9.51854 15.0416 9.50919 15.0416 9.49984C15.0416 6.43899 12.5608 3.95817 9.49996 3.95817C6.43911 3.95817 3.95829 6.43899 3.95829 9.49984C3.95829 12.5607 6.43911 15.0415 9.49996 15.0415C10.6374 15.0415 11.6948 14.6989 12.5745 14.1112C13.0697 14.668 13.7859 15.0238 14.5856 15.0409C13.2468 16.2703 11.4611 17.0207 9.49996 17.0207C5.34595 17.0207 1.97913 13.6538 1.97913 9.49984C1.97913 5.34583 5.34595 1.979 9.49996 1.979C13.654 1.979 17.0208 5.34583 17.0208 9.49984C17.0208 9.90702 16.9884 10.3066 16.9262 10.6963V10.6963Z" fill="black" fill-opacity="0.6"/>
<mask id="mask0_136_327510" style="mask-type:alpha" maskUnits="userSpaceOnUse" x="0" y="0" width="19" height="19">
<circle cx="9.5" cy="9.5" r="9.5" fill="#D9D9D9"/>
</mask>
<g mask="url(#mask0_136_327510)">
<circle cx="15.4375" cy="3.56234" r="5.14583" fill="white"/>
<rect x="14.6459" y="6.729" width="2.77083" height="3.95833" fill="white"/>
</g>
<circle cx="15.4375" cy="3.5625" r="3.5625" fill="#333333"/>
<path opacity="0.8" fill-rule="evenodd" clip-rule="evenodd" d="M8.3125 5.5415H10.6875V13.4582H8.3125V5.5415Z" fill="#333333"/>
<path fill-rule="evenodd" clip-rule="evenodd" d="M17.4167 13.1124C18.0996 13.2881 18.6042 13.9081 18.6042 14.6458V17.0208C18.6042 17.8953 17.8953 18.6042 17.0208 18.6042H12.2708C11.3964 18.6042 10.6875 17.8953 10.6875 17.0208V14.6458C10.6875 13.9081 11.1921 13.2881 11.875 13.1124V12.2708C11.875 10.7405 13.1155 9.5 14.6458 9.5C16.1761 9.5 17.4167 10.7405 17.4167 12.2708V13.1124ZM13.8542 13.0625H15.4375V12.2708C15.4375 11.8336 15.0831 11.4792 14.6458 11.4792C14.2086 11.4792 13.8542 11.8336 13.8542 12.2708V13.0625Z" fill="#333333" stroke="white" stroke-width="0.791667"/>
</g>
<defs>
<clipPath id="clip0_136_327510">
<rect width="19" height="19" fill="white"/>
</clipPath>
</defs>
</svg>
