<svg width="38" height="38" viewBox="0 0 38 38" fill="none" xmlns="http://www.w3.org/2000/svg">
<g clip-path="url(#clip0_136_327425)">
<path d="M19 38C29.4934 38 38 29.4934 38 19C38 8.50659 29.4934 0 19 0C8.50659 0 0 8.50659 0 19C0 29.4934 8.50659 38 19 38Z" fill="white"/>
<path fill-rule="evenodd" clip-rule="evenodd" d="M19 33.8438C10.802 33.8438 4.15625 27.198 4.15625 19C4.15625 10.802 10.802 4.15625 19 4.15625C27.198 4.15625 33.8438 10.802 33.8438 19C33.8438 27.198 27.198 33.8438 19 33.8438ZM19 29.6875C24.9025 29.6875 29.6875 24.9025 29.6875 19C29.6875 13.0975 24.9025 8.3125 19 8.3125C13.0975 8.3125 8.3125 13.0975 8.3125 19C8.3125 24.9025 13.0975 29.6875 19 29.6875Z" fill="#198CFF"/>
<mask id="mask0_136_327425" style="mask-type:alpha" maskUnits="userSpaceOnUse" x="0" y="0" width="38" height="38">
<circle cx="19" cy="19" r="19" fill="#D9D9D9"/>
</mask>
<g mask="url(#mask0_136_327425)">
<circle cx="30.875" cy="7.125" r="10.6875" fill="white"/>
</g>
<circle cx="30.875" cy="7.125" r="7.125" fill="#6851D6"/>
<path fill-rule="evenodd" clip-rule="evenodd" d="M16.625 15.9788V12.4688C16.625 12.1408 16.8908 11.875 17.2188 11.875H20.7812C21.1092 11.875 21.375 12.1408 21.375 12.4688V12.4688V19.4534C21.375 19.6161 21.3082 19.7716 21.1903 19.8837L20.7451 20.3069C20.5074 20.5328 20.4979 20.9086 20.7238 21.1463C20.7307 21.1536 20.7378 21.1607 20.7451 21.1676L21.1903 21.5908C21.3082 21.7029 21.375 21.8585 21.375 22.0211V25.5312C21.375 25.8592 21.1092 26.125 20.7812 26.125V26.125H17.2188C16.8908 26.125 16.625 25.8592 16.625 25.5312V18.5466C16.625 18.3839 16.6918 18.2284 16.8097 18.1163L17.2549 17.6931C17.4926 17.4672 17.5021 17.0913 17.2762 16.8537C17.2693 16.8464 17.2622 16.8393 17.2549 16.8324L16.8097 16.4092C16.6918 16.2971 16.625 16.1415 16.625 15.9788V15.9788Z" fill="#333333"/>
</g>
<defs>
<clipPath id="clip0_136_327425">
<rect width="38" height="38" fill="white"/>
</clipPath>
</defs>
</svg>
