<svg width="12" height="12" viewBox="0 0 12 12" fill="none" xmlns="http://www.w3.org/2000/svg">
<g clip-path="url(#clip0_113_327622)">
<path fill-rule="evenodd" clip-rule="evenodd" d="M11.76 7.68578C11.9118 7.92027 12 8.19984 12 8.5V10.5C12 11.3284 11.3284 12 10.5 12H6.5C6.44378 12 6.38828 11.9969 6.33366 11.9909C6.22321 11.9969 6.11196 12 6 12C2.686 12 0 9.314 0 6C0 2.686 2.686 0 6 0C9.314 0 12 2.686 12 6C12 6.58529 11.9162 7.151 11.76 7.68578Z" fill="white"/>
<path opacity="0.8" fill-rule="evenodd" clip-rule="evenodd" d="M10.7491 5.90714C10.4447 5.2818 9.88715 4.80239 9.20978 4.60219C8.67025 3.36483 7.43623 2.5 6 2.5C4.06683 2.5 2.5 4.06683 2.5 6C2.5 7.58567 3.55417 8.92487 5 9.35509V10.5C5 10.5493 5.00238 10.598 5.00702 10.6461C2.8602 10.1896 1.25 8.28303 1.25 6C1.25 3.37642 3.37642 1.25 6 1.25C8.59256 1.25 10.6996 3.32642 10.7491 5.90714Z" fill="black" fill-opacity="0.6"/>
<mask id="mask0_113_327622" style="mask-type:alpha" maskUnits="userSpaceOnUse" x="0" y="0" width="12" height="12">
<circle cx="6" cy="6" r="6" fill="#D9D9D9"/>
</mask>
<g mask="url(#mask0_113_327622)">
<circle cx="9.75" cy="2.25" r="3.25" fill="white"/>
<rect x="8.5" y="2.5" width="2.5" height="5" fill="white"/>
</g>
<circle cx="9.75" cy="2.25" r="2.25" fill="#333333"/>
<path opacity="0.8" fill-rule="evenodd" clip-rule="evenodd" d="M6.75 5.21464C6.28716 5.66837 6 6.30065 6 7V7.08535C5.69098 7.19458 5.42843 7.40219 5.25 7.67055V3.5H6.75V5.21464Z" fill="#333333"/>
<path fill-rule="evenodd" clip-rule="evenodd" d="M7 8V7C7 6.17157 7.67157 5.5 8.5 5.5C9.32843 5.5 10 6.17157 10 7V8H10.5C10.7761 8 11 8.22386 11 8.5V10.5C11 10.7761 10.7761 11 10.5 11H6.5C6.22386 11 6 10.7761 6 10.5V8.5C6 8.22386 6.22386 8 6.5 8H7ZM8 8H9V7C9 6.72386 8.77614 6.5 8.5 6.5C8.22386 6.5 8 6.72386 8 7V8Z" fill="#333333"/>
</g>
<defs>
<clipPath id="clip0_113_327622">
<rect width="12" height="12" fill="white"/>
</clipPath>
</defs>
</svg>
