<svg width="16" height="16" viewBox="0 0 15 16" fill="none" xmlns="http://www.w3.org/2000/svg">
<path d="M4.64286 1.81798C4.64286 2.42139 4.16238 2.91054 3.56968 2.91054H1.78571C0.799492 2.91054 0 3.72448 0 4.72852V7.30764C0 7.49679 0.171347 7.63729 0.357143 7.63729H1.07143C2.05765 7.63729 2.85714 8.45123 2.85714 9.45527C2.85714 10.4593 2.05765 11.2733 1.07143 11.2733H0.357143C0.171348 11.2733 0 11.4138 0 11.6029V14.182C0 15.1861 0.799492 16 1.78571 16H4.31763C4.50427 16 4.64286 15.8246 4.64286 15.6346V14.9074C4.64286 13.9034 5.44235 13.0895 6.42857 13.0895C7.41479 13.0895 8.21429 13.9034 8.21429 14.9074V15.6346C8.21429 15.8246 8.35287 16 8.53952 16H11.0714C12.0577 16 12.8571 15.1861 12.8571 14.182V11.637C12.8571 11.4362 13.017 11.2734 13.2143 11.2734C14.2005 11.2734 15 10.4595 15 9.45541C15 8.45137 14.2005 7.63743 13.2143 7.63743C13.017 7.63743 12.8571 7.47464 12.8571 7.27384V4.72852C12.8571 3.72448 12.0577 2.91054 11.0714 2.91054H9.28746C8.69476 2.91054 8.21429 2.42139 8.21429 1.81798C8.21429 0.813937 7.41479 0 6.42857 0C5.44235 0 4.64286 0.813938 4.64286 1.81798Z" fill="#5F6368"/>
</svg>
