<svg width="10" height="16" viewBox="0 0 8 14" fill="none" xmlns="http://www.w3.org/2000/svg">
<path fill-rule="evenodd" clip-rule="evenodd" d="M7.46091 0H0.460914V1H1.46091V6.92969C1.46091 6.9751 1.44529 7.01953 1.41697 7.05469L0.110328 8.6875C-0.151391 9.01514 0.0820077 9.5 0.500953 9.5H3.46091V13.5H4.46091V9.5H7.42088C7.83982 9.5 8.07322 9.01514 7.8115 8.6875L6.50486 7.05469C6.47654 7.01953 6.46091 6.9751 6.46091 6.92969V1H7.46091V0ZM5.46091 1H2.46091V6.93945C2.46091 6.979 2.4492 7.01758 2.42771 7.05029L1.66795 8.18896C1.58005 8.32178 1.67478 8.5 1.83494 8.5H6.08689C6.24705 8.5 6.34177 8.32178 6.25388 8.18896L5.49412 7.05029C5.47263 7.01758 5.46091 6.979 5.46091 6.93945V1Z" fill="#5F6368"/>
</svg>
