<svg width="536" height="140" viewBox="0 0 536 140" fill="none" xmlns="http://www.w3.org/2000/svg">
<g clip-path="url(#clip0_2277_247312)">
<path opacity="0.4" d="M407.674 106.229C409.298 113.19 397.867 125.709 385.162 128.674C365.782 133.195 356.681 118.893 356.681 112.776C356.681 105.628 368.619 96.4692 381.665 96.4691C396.16 96.4691 406.05 99.2682 407.674 106.229Z" fill="#DCEDFF"/>
<path opacity="0.4" d="M262.914 129.272C230.748 145.301 173.788 141.8 167.425 81.1392C158.925 0.0905741 258.721 8.88238 306.701 20.5938C376.451 37.6191 386.853 82.494 350.097 92.2003C313.341 101.907 295.079 113.244 262.914 129.272Z" fill="#DCEDFF"/>
<path fill-rule="evenodd" clip-rule="evenodd" d="M339.407 121.655L367.999 138.277C370.254 139.588 373.146 138.822 374.458 136.567L391.079 107.975C392.391 105.719 391.625 102.827 389.369 101.516L360.778 84.8943C358.522 83.5829 355.63 84.3485 354.319 86.6043L337.697 115.196C336.386 117.452 337.151 120.343 339.407 121.655Z" fill="#C2EAFF"/>
<path fill-rule="evenodd" clip-rule="evenodd" d="M339.407 121.655L367.999 138.277C370.254 139.588 373.146 138.822 374.458 136.567L391.079 107.975C392.391 105.719 391.625 102.827 389.369 101.516L360.778 84.8943C358.522 83.5829 355.63 84.3485 354.319 86.6043L337.697 115.196C336.386 117.452 337.151 120.343 339.407 121.655Z" stroke="#66CBFF" stroke-width="1.11161" stroke-miterlimit="10" stroke-linecap="round" stroke-linejoin="round"/>
<path fill-rule="evenodd" clip-rule="evenodd" d="M369.946 132.577L364.491 129.406L369.892 120.115C371.373 117.567 371.233 115.581 369.216 114.409C367.023 113.134 365.016 113.949 363.568 116.438L358.167 125.729L352.91 122.673L363.199 104.974L368.457 108.03L367.071 110.414C367.071 110.414 370.352 108.408 374.108 110.592C377.862 112.774 379.217 116.629 376.46 121.371L369.946 132.577ZM358.275 99.01C356.484 97.969 355.884 95.663 356.932 93.8593C357.981 92.0557 360.282 91.4368 362.073 92.4779C363.863 93.5189 364.463 95.8244 363.415 97.628C362.366 99.4317 360.066 100.051 358.275 99.01ZM343.924 117.449L349.405 120.636L359.695 102.936L354.213 99.7495L343.924 117.449Z" fill="white" stroke="#66CBFF" stroke-width="1.11161" stroke-miterlimit="10" stroke-linecap="round" stroke-linejoin="round"/>
<path fill-rule="evenodd" clip-rule="evenodd" d="M196.839 121.463L168.248 138.084C165.992 139.396 163.1 138.63 161.789 136.374L145.167 107.783C143.856 105.527 144.621 102.635 146.877 101.324L175.468 84.7022C177.724 83.3908 180.616 84.1563 181.928 86.4121L198.549 115.004C199.861 117.259 199.095 120.151 196.839 121.463Z" fill="#C2EAFF" stroke="#66CBFF" stroke-width="1.11161" stroke-miterlimit="10" stroke-linecap="round" stroke-linejoin="round"/>
<path d="M173.223 125.023C182.837 119.367 183.408 108.309 179.345 101.402C179.211 101.176 179.074 100.953 178.932 100.735C179.52 99.393 179.863 97.9571 179.947 96.4945C179.255 97.4619 178.412 98.3351 177.43 99.0834C178.128 97.8014 178.354 96.2904 178.027 94.8402C177.359 96.0526 176.489 97.1421 175.455 98.0618C173.903 97.607 172.171 97.7705 170.668 98.6552C167.781 100.353 166.818 104.071 168.516 106.957C168.757 107.367 169.038 107.739 169.352 108.069C164.88 110.406 159.804 110.593 155.365 108.947C155.37 110.018 155.66 111.068 156.203 111.99C157.27 113.804 159.135 114.862 161.089 114.973C160.244 115.436 159.301 115.689 158.337 115.712C158.349 115.734 158.362 115.755 158.376 115.779C159.865 118.31 162.91 119.363 165.584 118.435C165.207 118.822 164.779 119.156 164.314 119.43C163.984 119.624 163.636 119.786 163.276 119.914C165.163 121.599 167.982 121.975 170.294 120.671C169.331 123.126 167.568 125.287 165.119 126.728C164.698 126.976 164.268 127.197 163.83 127.389C167.015 127.511 170.271 126.76 173.223 125.023" fill="white"/>
<path d="M173.223 125.023C182.837 119.367 183.408 108.309 179.345 101.402C179.211 101.176 179.074 100.953 178.932 100.735C179.52 99.393 179.863 97.9571 179.947 96.4945C179.255 97.4619 178.412 98.3351 177.43 99.0834C178.128 97.8014 178.354 96.2904 178.027 94.8402C177.359 96.0526 176.489 97.1421 175.455 98.0618C173.903 97.607 172.171 97.7705 170.668 98.6552C167.781 100.353 166.818 104.071 168.516 106.957C168.757 107.367 169.038 107.739 169.352 108.069C164.88 110.406 159.804 110.593 155.365 108.947C155.37 110.018 155.66 111.068 156.203 111.99C157.27 113.804 159.135 114.862 161.089 114.973C160.244 115.436 159.301 115.689 158.337 115.712C158.349 115.734 158.362 115.755 158.376 115.779C159.865 118.31 162.91 119.363 165.584 118.435C165.207 118.822 164.779 119.156 164.314 119.43C163.984 119.624 163.636 119.786 163.276 119.914C165.163 121.599 167.982 121.975 170.294 120.671C169.331 123.126 167.568 125.287 165.119 126.728C164.698 126.976 164.268 127.197 163.83 127.389C167.015 127.511 170.271 126.76 173.223 125.023" stroke="#66CBFF" stroke-width="1.11161" stroke-miterlimit="10" stroke-linecap="round" stroke-linejoin="round"/>
<path d="M343.206 103.565L346.873 94.8123L338.141 92.6336L339.614 86.7276C340.235 84.2378 342.061 82.1151 345.972 83.091L349.942 84.0816L351.875 76.3335C351.875 76.3335 348.426 74.8196 344.981 73.9601C337.789 72.1657 332.001 75.3515 330.032 83.2423L328.302 90.1787L320.308 88.1841L318.037 97.285L326.031 99.2796L320.542 121.281C322.105 121.942 323.718 122.48 325.366 122.89C327.039 123.308 328.715 123.587 330.38 123.735L335.87 101.735L343.206 103.565Z" fill="white"/>
<path fill-rule="evenodd" clip-rule="evenodd" d="M310.797 58.212C305.912 56.9932 300.964 59.9651 299.745 64.85L288.78 108.799C287.561 113.684 290.533 118.632 295.418 119.851L320.234 126.042L325.794 103.757L317.8 101.762L320.071 92.6614L328.065 94.656L329.796 87.7196C331.765 79.8288 337.553 76.643 344.744 78.4374C348.189 79.2969 351.639 80.8108 351.639 80.8108L349.705 88.5589L345.735 87.5683C341.824 86.5925 339.999 88.7151 339.378 91.2049L337.904 97.1109L346.636 99.2896L342.969 108.042L335.633 106.212L330.073 128.497L339.367 130.816C344.251 132.035 349.199 129.063 350.418 124.178L361.384 80.2294C362.603 75.3445 359.631 70.3965 354.746 69.1776L310.797 58.212Z" fill="#66CBFF"/>
<path d="M299.745 64.85L299.206 64.7155L299.745 64.85ZM288.78 108.799L289.319 108.933L288.78 108.799ZM320.234 126.042L320.773 126.177C320.738 126.32 320.647 126.443 320.52 126.519C320.394 126.595 320.242 126.617 320.099 126.582L320.234 126.042ZM325.794 103.757L325.929 103.218C326.227 103.292 326.408 103.594 326.334 103.892L325.794 103.757ZM317.8 101.762L317.666 102.302C317.368 102.227 317.187 101.926 317.261 101.628L317.8 101.762ZM320.071 92.6614L319.532 92.5269C319.568 92.3839 319.659 92.2609 319.785 92.185C319.911 92.1091 320.063 92.0865 320.206 92.1222L320.071 92.6614ZM328.065 94.656L328.604 94.7906C328.569 94.9336 328.478 95.0566 328.351 95.1325C328.225 95.2084 328.074 95.231 327.931 95.1953L328.065 94.656ZM329.796 87.7196L330.335 87.8542L329.796 87.7196ZM351.639 80.8108L351.862 80.3019C352.11 80.4107 352.244 80.6825 352.178 80.9454L351.639 80.8108ZM349.705 88.5589L350.245 88.6935C350.209 88.8365 350.118 88.9595 349.992 89.0354C349.865 89.1113 349.714 89.1339 349.571 89.0982L349.705 88.5589ZM345.735 87.5683L345.87 87.0291L345.735 87.5683ZM339.378 91.2049L338.838 91.0704L339.378 91.2049ZM337.904 97.1109L337.77 97.6502C337.626 97.6145 337.504 97.5235 337.428 97.3971C337.352 97.2707 337.329 97.1194 337.365 96.9764L337.904 97.1109ZM346.636 99.2896L346.771 98.7504C346.928 98.7896 347.06 98.8956 347.133 99.0405C347.206 99.1854 347.211 99.3549 347.149 99.5044L346.636 99.2896ZM342.969 108.042L343.482 108.257C343.376 108.51 343.101 108.648 342.835 108.582L342.969 108.042ZM335.633 106.212L335.094 106.077C335.168 105.779 335.47 105.598 335.768 105.673L335.633 106.212ZM330.073 128.497L329.938 129.037C329.795 129.001 329.672 128.91 329.596 128.783C329.521 128.657 329.498 128.506 329.534 128.363L330.073 128.497ZM350.418 124.178L350.958 124.313L350.418 124.178ZM361.384 80.2294L360.845 80.0949L361.384 80.2294ZM299.206 64.7155C300.499 59.5327 305.749 56.3796 310.932 57.6728L310.663 58.7513C306.076 57.6068 301.429 60.3975 300.285 64.9846L299.206 64.7155ZM288.241 108.664L299.206 64.7155L300.285 64.9846L289.319 108.933L288.241 108.664ZM295.283 120.39C290.101 119.097 286.947 113.847 288.241 108.664L289.319 108.933C288.175 113.52 290.965 118.167 295.552 119.311L295.283 120.39ZM320.099 126.582L295.283 120.39L295.552 119.311L320.369 125.503L320.099 126.582ZM326.334 103.892L320.773 126.177L319.695 125.908L325.255 103.622L326.334 103.892ZM317.935 101.223L325.929 103.218L325.66 104.296L317.666 102.302L317.935 101.223ZM320.61 92.796L318.34 101.897L317.261 101.628L319.532 92.5269L320.61 92.796ZM327.931 95.1953L319.937 93.2007L320.206 92.1222L328.2 94.1168L327.931 95.1953ZM330.335 87.8542L328.604 94.7906L327.526 94.5215L329.257 87.5851L330.335 87.8542ZM344.61 78.9767C341.123 78.1067 338.036 78.4568 335.598 79.9229C333.16 81.3886 331.293 84.0164 330.335 87.8542L329.257 87.5851C330.268 83.5321 332.279 80.6216 335.025 78.9702C337.771 77.3193 341.174 76.9738 344.879 77.8982L344.61 78.9767ZM351.639 80.8108C351.415 81.3198 351.415 81.3198 351.415 81.3198C351.415 81.3198 351.415 81.3198 351.415 81.3198C351.415 81.3197 351.415 81.3197 351.415 81.3196C351.415 81.3195 351.414 81.3193 351.413 81.3189C351.412 81.3183 351.41 81.3173 351.407 81.316C351.4 81.3133 351.391 81.3091 351.378 81.3037C351.353 81.2928 351.315 81.2765 351.266 81.2554C351.167 81.2131 351.021 81.1515 350.834 81.0748C350.461 80.9212 349.928 80.7073 349.288 80.4667C348.005 79.9847 346.303 79.3993 344.61 78.9767L344.879 77.8982C346.63 78.3351 348.376 78.9364 349.679 79.4261C350.332 79.6715 350.876 79.8897 351.257 80.0469C351.448 80.1255 351.599 80.1889 351.702 80.2328C351.753 80.2547 351.793 80.2718 351.82 80.2835C351.833 80.2894 351.844 80.2939 351.851 80.2969C351.854 80.2985 351.857 80.2997 351.859 80.3005C351.86 80.3009 351.861 80.3012 351.861 80.3015C351.861 80.3016 351.862 80.3017 351.862 80.3017C351.862 80.3018 351.862 80.3018 351.862 80.3018C351.862 80.3018 351.862 80.3019 351.639 80.8108ZM349.166 88.4244L351.099 80.6763L352.178 80.9454L350.245 88.6935L349.166 88.4244ZM345.87 87.0291L349.84 88.0197L349.571 89.0982L345.601 88.1076L345.87 87.0291ZM338.838 91.0704C339.169 89.7471 339.834 88.4549 341.003 87.6325C342.188 86.7986 343.797 86.5119 345.87 87.0291L345.601 88.1076C343.762 87.6489 342.504 87.9356 341.643 88.5415C340.766 89.1589 340.208 90.173 339.917 91.3395L338.838 91.0704ZM337.365 96.9764L338.838 91.0704L339.917 91.3395L338.443 97.2455L337.365 96.9764ZM346.502 99.8289L337.77 97.6502L338.039 96.5716L346.771 98.7504L346.502 99.8289ZM342.457 107.828L346.123 99.0749L347.149 99.5044L343.482 108.257L342.457 107.828ZM335.768 105.673L343.104 107.503L342.835 108.582L335.499 106.751L335.768 105.673ZM329.534 128.363L335.094 106.077L336.173 106.346L330.612 128.632L329.534 128.363ZM339.232 131.355L329.938 129.037L330.207 127.958L339.501 130.277L339.232 131.355ZM350.958 124.313C349.664 129.495 344.415 132.649 339.232 131.355L339.501 130.277C344.088 131.421 348.735 128.631 349.879 124.044L350.958 124.313ZM361.923 80.364L350.958 124.313L349.879 124.044L360.845 80.0949L361.923 80.364ZM354.88 68.6384C360.063 69.9315 363.216 75.1812 361.923 80.364L360.845 80.0949C361.989 75.5078 359.198 70.8614 354.611 69.7169L354.88 68.6384ZM310.932 57.6728L354.88 68.6384L354.611 69.7169L310.663 58.7513L310.932 57.6728Z" fill="#034EA6"/>
<rect x="172.538" y="71.3833" width="63.5282" height="63.5282" rx="9.11605" transform="rotate(-14.0043 172.538 71.3833)" fill="white" stroke="#D3376C" stroke-width="1.11161" stroke-miterlimit="10" stroke-linecap="round" stroke-linejoin="round"/>
<path d="M232.403 89.7094C232.046 88.278 231.58 86.9506 231.033 85.6821L210.557 90.7888L212.596 98.9608L224.319 96.0369C224.462 98.8497 223.487 101.499 221.588 103.608L222.944 109.044L229.938 107.3C233.089 102.492 234.052 96.3231 232.403 89.7094Z" fill="#F17BA5"/>
<path d="M216.884 116.156C222.755 114.692 227.177 111.51 229.938 107.3L221.588 103.608C219.956 105.401 217.673 106.817 214.737 107.549C209.066 108.964 203.311 106.338 200.301 101.603L193.09 103.402L194.486 109.001C199.827 115.214 208.386 118.276 216.884 116.156Z" fill="#FAB6D7"/>
<path d="M200.301 101.603C199.523 100.412 198.939 99.0753 198.578 97.6257C198.216 96.1761 198.122 94.7176 198.231 93.3045L196.835 87.7055L189.623 89.5042C188.87 92.8102 188.84 96.3204 189.717 99.8356C190.594 103.351 192.268 106.436 194.486 109.001L200.301 101.603Z" fill="#FFF9FC"/>
<path d="M208.184 81.2758C211.392 80.4759 214.53 80.8672 217.333 82.4586L221.984 74.716C217.357 72.1363 211.909 71.2047 206.038 72.669C197.54 74.7885 191.421 81.5111 189.623 89.5043L198.231 93.3047C198.665 87.7112 202.513 82.6904 208.184 81.2758Z" fill="#FAB6D7"/>
<path d="M217.333 82.4584C214.53 80.867 211.392 80.4757 208.185 81.2756C202.513 82.6901 198.665 87.711 198.231 93.3045C198.122 94.7176 198.216 96.176 198.578 97.6256C198.939 99.0752 199.523 100.412 200.301 101.603C203.311 106.338 209.066 108.964 214.737 107.549C217.673 106.817 219.956 105.401 221.588 103.608C223.487 101.498 224.462 98.8494 224.319 96.0366L212.595 98.9605L210.557 90.7885L231.032 85.6818C231.58 86.9503 232.046 88.2777 232.403 89.7091C234.052 96.3228 233.088 102.491 229.938 107.3C227.177 111.51 222.755 114.692 216.884 116.156C208.386 118.276 199.827 115.214 194.486 109.001C192.268 106.436 190.594 103.351 189.717 99.8355C188.841 96.3203 188.87 92.8101 189.623 89.5041C191.421 81.5109 197.54 74.7883 206.038 72.6687C211.909 71.2045 217.357 72.1361 221.984 74.7158L217.333 82.4584Z" stroke="#D3376C" stroke-width="1.11161" stroke-miterlimit="10" stroke-linecap="round" stroke-linejoin="round"/>
<path fill-rule="evenodd" clip-rule="evenodd" d="M268.027 12.1553C257.197 12.1553 248.417 20.9348 248.417 31.7648L248.417 76.6411L238.377 76.6411L238.377 31.7648C238.377 15.3898 251.652 2.11524 268.027 2.11524C284.402 2.11524 297.677 15.3898 297.677 31.7648L297.677 76.6411L287.637 76.6411L287.637 31.7648C287.637 20.9348 278.857 12.1553 268.027 12.1553Z" fill="#FFE3AC" stroke="#EB7100" stroke-width="1.11161" stroke-miterlimit="10" stroke-linecap="round" stroke-linejoin="round"/>
<rect x="225.522" y="50.9802" width="85.0099" height="74.0997" rx="11.8509" fill="white"/>
<path fill-rule="evenodd" clip-rule="evenodd" d="M310.532 108.635V113.229C310.532 119.774 305.227 125.08 298.682 125.08H237.373C230.828 125.08 225.523 119.774 225.523 113.229V108.635C225.523 115.18 230.828 120.485 237.373 120.485H298.682C305.227 120.485 310.532 115.18 310.532 108.635Z" fill="#FFE3AC"/>
<path d="M225.522 62.8311C225.522 56.286 230.828 50.9802 237.373 50.9802H298.681C305.227 50.9802 310.532 56.286 310.532 62.8311V113.229C310.532 119.774 305.227 125.08 298.681 125.08H237.373C230.828 125.08 225.522 119.774 225.522 113.229V62.8311Z" stroke="#EB7100" stroke-width="1.11161" stroke-miterlimit="10" stroke-linecap="round" stroke-linejoin="round"/>
<circle opacity="0.6" cx="268.027" cy="88.0299" r="26.7325" fill="#FFE3AC"/>
<path d="M256.533 100.439C256.533 94.4285 261.405 89.5564 267.415 89.5564L268.641 89.5564C274.651 89.5564 279.523 94.4285 279.523 100.439V100.439L256.533 100.439V100.439Z" fill="#EB7100"/>
<circle cx="268.028" cy="81.5087" r="5.88734" fill="#EB7100"/>
</g>
<defs>
<clipPath id="clip0_2277_247312">
<rect width="536" height="140" fill="white" transform="matrix(-1 0 0 1 536 0)"/>
</clipPath>
</defs>
</svg>
