<svg width="32" height="32" viewBox="0 0 32 32" fill="none" xmlns="http://www.w3.org/2000/svg">
<rect width="32" height="32" fill="black" fill-opacity="0.01"/>
<rect width="32" height="32" fill="#FFD480"/>
<g clip-path="url(#clip0_6_3493)">
<path fill-rule="evenodd" clip-rule="evenodd" d="M20.3824 14L20.2399 13.858L18.5874 13.8556C18.5433 13.8555 18.504 13.8359 18.4773 13.8038C18.4564 13.7788 18.4442 13.7472 18.4442 13.712C18.4442 13.6894 18.4496 13.6671 18.4599 13.647L19.2051 12.1886L19.1423 12H22C22.6165 12 23.1678 12.2789 23.5347 12.7175L22.152 13.4093L21.961 14H20.3824ZM23.1705 15.4598L23.468 14.54L24 14.2738V18C24 19.1046 23.1046 20 22 20H20.1856L21.014 18H22V16.5971C22.5351 16.4405 22.9859 16.0306 23.1705 15.4598ZM15.2065 20H10C8.89543 20 8 19.1046 8 18V14C8 12.8954 8.89543 12 10 12H17.456L17.4752 12.0577L17.0351 12.9189C16.91 13.1638 16.8446 13.4347 16.8442 13.7097C16.8441 13.8086 16.8522 13.9056 16.8679 14H10V18H16.035L15.2065 20ZM19.2822 18H17.7668L17.1817 19.4127L18.4751 19.9484L19.2822 18Z" fill="#CC4E00"/>
<path d="M22.2541 9.605C22.2945 9.66093 22.3212 9.7255 22.3322 9.79358L22.5751 11.2956L23.8096 12.191C24.0078 12.3348 24.052 12.612 23.9082 12.8103C23.8664 12.8679 23.8114 12.9146 23.7477 12.9465L22.3989 13.6213L21.9337 15.0598C21.8584 15.2928 21.6084 15.4207 21.3754 15.3453C21.3089 15.3238 21.2484 15.2868 21.1988 15.2374L20.1159 14.1578L18.5871 14.1556C18.3422 14.1553 18.144 13.9565 18.1444 13.7116C18.1445 13.6417 18.1611 13.5727 18.1929 13.5105L18.8809 12.1641L18.4047 10.7332C18.3274 10.5009 18.453 10.2499 18.6854 10.1725C18.7529 10.1501 18.8248 10.1442 18.8951 10.1553L20.4008 10.395L21.6351 9.50476C21.8337 9.36151 22.1109 9.40639 22.2541 9.605Z" fill="#CC4E00"/>
<path fill-rule="evenodd" clip-rule="evenodd" d="M16.7899 19.575L18.6864 14.9965L19.7679 14.9979L20.5341 15.7618L18.6376 20.3404L16.7899 19.575ZM16.5447 20.1669L15.9707 21.5527C15.865 21.8078 15.9862 22.1003 16.2413 22.206L17.1652 22.5887C17.4203 22.6944 17.7128 22.5732 17.8184 22.3181L18.3925 20.9323L16.5447 20.1669Z" fill="#CC4E00"/>
<circle cx="12" cy="16" r="1" fill="#CC4E00"/>
<circle cx="15" cy="16" r="1" fill="#CC4E00"/>
</g>
<defs>
<clipPath id="clip0_6_3493">
<rect width="16" height="16" fill="white" transform="translate(8 8)"/>
</clipPath>
</defs>
</svg>
