<svg width="32" height="32" viewBox="0 0 32 32" fill="none" xmlns="http://www.w3.org/2000/svg">
<rect width="32" height="32" fill="black" fill-opacity="0.01"/>
<rect width="32" height="32" fill="#ABFCCB"/>
<rect width="16" height="16" transform="translate(8 8)" fill="black" fill-opacity="0.01"/>
<path fill-rule="evenodd" clip-rule="evenodd" d="M15.5528 8.10557C15.8343 7.96481 16.1657 7.96481 16.4472 8.10557L20.7641 10.264L18.5281 11.3821L16 10.118L13.4719 11.3821L11.2358 10.264L15.5528 8.10557ZM13.9168 20.8404C13.4182 21.3209 13.1071 21.9565 13.0227 22.6294L8.55276 20.3944C8.21398 20.225 7.99997 19.8788 7.99997 19.5V15.3543L9.99997 16.3543V18.882L13.9168 20.8404ZM9.44719 11.6058C8.95321 11.3588 8.35254 11.559 8.10555 12.053C7.85856 12.547 8.05878 13.1476 8.55276 13.3946L15.5528 16.8946C15.8343 17.0354 16.1657 17.0354 16.4472 16.8946L22 14.1182V18.8822L15.5528 22.1058C15.0588 22.3528 14.8586 22.9534 15.1055 23.4474C15.3525 23.9414 15.9532 24.1416 16.4472 23.8946L23.4472 20.3946C23.786 20.2252 24 19.879 24 19.5002V12.5002C24 12.1536 23.8205 11.8318 23.5257 11.6495C23.2309 11.4673 22.8628 11.4508 22.5528 11.6058L16 14.8822L9.44719 11.6058Z" fill="#1C673E"/>
</svg>
