<svg width="32" height="32" viewBox="0 0 32 32" fill="none" xmlns="http://www.w3.org/2000/svg">
<rect width="32" height="32" fill="black" fill-opacity="0.01"/>
<rect width="32" height="32" fill="#B9BDC2"/>
<path fill-rule="evenodd" clip-rule="evenodd" d="M10 10C8.89543 10 8 10.8983 8 12.0063V19.9937C8 21.1017 8.89543 22 10 22H22C23.1046 22 24 21.1017 24 19.9937V12.0063C24 10.8983 23.1046 10 22 10H10ZM10 19.9937V12.0063L22 12.0063V19.9937L10 19.9937ZM14 14H11V16H14V14ZM15 14H17V16H15V14ZM21 14H18V16H21V14ZM11 17H13V19H11V17ZM21 17H19V19H21V17ZM18 17H14V19H18V17Z" fill="#35414C"/>
</svg>
