<svg width="32" height="32" viewBox="0 0 32 32" fill="none" xmlns="http://www.w3.org/2000/svg">
<rect width="32" height="32" fill="black" fill-opacity="0.01"/>
<rect width="32" height="32" fill="#B9BDC2"/>
<rect width="16" height="16" transform="translate(8 8)" fill="black" fill-opacity="0.01"/>
<path fill-rule="evenodd" clip-rule="evenodd" d="M12.0388 15.0698L10.0882 22.8999C10.1422 23.4359 11.2217 23.776 13.3267 23.9203L14.1991 23.4839V19.6129C14.1991 18.6152 15.0079 17.8065 16.0056 17.8065C17.0032 17.8065 17.812 18.6152 17.812 19.6129V23.4839L18.6677 23.9117L18.6679 23.9123C21.9387 23.6581 21.9328 22.9369 21.9229 22.8999L19.9723 15.0697C19.9712 15.0698 19.9701 15.0699 19.9691 15.07C19.9691 15.0652 19.969 15.0605 19.9688 15.0558C19.9582 15.0156 19.9524 14.975 19.9512 14.9346C19.7871 14.3187 18.4934 14 16.0701 14C13.4751 14 12.1324 14.3654 12.042 15.07C12.0409 15.0699 12.0398 15.0699 12.0388 15.0698ZM21.7395 13.3124C21.8661 13.2152 21.941 13.0609 21.941 12.8966V10.9057C21.941 10.707 21.8318 10.526 21.6601 10.4402L20.5456 9.88293C20.4826 9.85142 20.4136 9.83507 20.3437 9.83507C20.0857 9.83507 19.8765 10.0533 19.8765 10.3226C19.8765 10.4035 19.8543 10.4827 19.8126 10.5509C19.6917 10.7483 19.4404 10.8061 19.2513 10.68L18.5565 10.2167C18.4142 10.1219 18.3281 9.95793 18.3281 9.78179V9.03226C18.3281 8.46216 17.8852 8 17.3389 8H14.6722C14.1259 8 13.683 8.46216 13.683 9.03226V9.78179C13.683 9.95793 13.5969 10.1219 13.4546 10.2167L12.7598 10.68C12.6945 10.7235 12.6185 10.7467 12.541 10.7467C12.3165 10.7467 12.1346 10.5568 12.1346 10.3226C12.1346 10.2497 12.1189 10.1777 12.0887 10.1119C11.9772 9.8691 11.6982 9.76658 11.4655 9.88293L10.351 10.4402C10.1793 10.526 10.0701 10.707 10.0701 10.9057V12.8966C10.0701 13.0613 10.1453 13.216 10.2725 13.3131L10.276 13.31C10.2109 13.2612 11.4317 12.2424 16.0707 12.243C20.7097 12.2436 21.7992 13.2619 21.7351 13.31L21.7395 13.3124Z" fill="#35414C"/>
</svg>
